<svg version="1.1" id="Layer_1" xmlns="http://www.w3.org/2000/svg" xmlns:xlink="http://www.w3.org/1999/xlink" x="0px" y="0px"
	 width="100%" viewBox="0 0 262 262" enable-background="new 0 0 262 262" xml:space="preserve">

<path fill="#000000" opacity="1.000000" stroke="none" 
	d="
M64.088280,130.042908 
	C62.226696,125.733421 59.135555,124.159729 54.355820,124.735657 
	C50.121498,125.245872 45.777107,124.842613 41.169960,124.842613 
	C41.169960,96.332802 41.169960,68.287521 41.169960,39.911449 
	C69.705170,39.911449 98.078186,39.911449 126.849487,39.911449 
	C126.849487,46.843266 126.849487,53.627689 126.791992,61.014801 
	C126.734489,61.617489 126.332954,61.876411 126.332954,61.876411 
	C117.560005,63.662987 111.302612,75.503197 114.819748,84.828369 
	C116.414505,89.056633 119.081963,93.134155 122.130524,96.492340 
	C125.506981,100.211739 127.232681,104.027779 127.042137,108.992516 
	C126.846245,114.096687 126.998680,119.214226 126.998680,124.842651 
	C121.391609,124.842651 116.255348,124.542503 111.181915,124.976608 
	C108.847801,125.176331 106.524040,126.623428 104.410019,127.868896 
	C103.024551,128.685150 102.052734,130.184708 100.845322,131.324936 
	C89.009720,142.501999 75.823944,142.154114 64.290527,130.196442 
	C64.041885,130.012543 64.088280,130.042908 64.088280,130.042908 
z"/>
<path fill="#000000" opacity="1.000000" stroke="none" 
	d="
M64.028458,129.988312 
	C64.322289,131.437912 64.264664,133.129593 64.994095,134.351410 
	C71.251953,144.833557 86.540443,147.375397 95.886375,139.597046 
	C96.014366,139.490524 96.177910,139.405884 96.263168,139.271790 
	C103.698524,127.577652 115.163727,129.305695 126.997719,130.264450 
	C126.997719,135.149200 127.267723,140.107407 126.914291,145.020767 
	C126.619034,149.125397 128.227737,151.901016 131.113205,154.555847 
	C145.395477,167.696457 144.719177,183.410385 129.671326,195.581894 
	C128.264908,196.719467 127.270737,199.052399 127.116562,200.915649 
	C126.748779,205.360428 126.997940,209.856262 126.997940,214.663269 
	C98.327141,214.663269 69.945915,214.663269 41.205208,214.663269 
	C41.205208,186.503433 41.205208,158.322418 41.205208,129.304276 
	C48.674889,129.647491 55.912422,129.980057 63.619118,130.177765 
	C64.088280,130.042908 64.041885,130.012543 64.028458,129.988312 
z"/>
<path fill="#000000" opacity="1.000000" stroke="none" 
	d="
M126.213928,62.221348 
	C126.332954,61.876411 126.734489,61.617489 126.787994,61.509087 
	C128.365631,60.768200 129.889771,60.135715 131.884598,59.307907 
	C131.884598,53.041245 131.884598,46.610203 131.884598,39.887199 
	C160.736099,39.887199 189.100510,39.887199 217.732117,39.887199 
	C217.732117,68.142754 217.732117,96.198105 217.732117,124.820496 
	C211.127625,124.820496 204.684357,124.913109 198.249054,124.728233 
	C197.191345,124.697845 195.790756,123.686150 195.186569,122.726387 
	C186.220413,108.483345 170.672791,106.986313 159.461166,119.725868 
	C156.149765,123.488548 152.674561,125.133286 147.808792,124.897774 
	C142.698532,124.650429 137.566986,124.842415 131.845871,124.842415 
	C131.845871,119.419830 131.678070,114.472809 131.894730,109.542694 
	C132.096924,104.942085 130.709656,101.434143 127.372871,98.017212 
	C116.179428,86.554947 115.905907,73.964989 126.213928,62.221348 
z"/>
<path fill="#000000" opacity="1.000000" stroke="none" 
	d="
M212.043243,141.397400 
	C216.010925,142.133942 219.856628,142.585907 223.715576,142.812958 
	C226.517929,142.977829 229.337814,142.845169 232.493271,142.845169 
	C232.493271,171.239899 232.493271,199.279358 232.493271,227.737549 
	C204.196274,227.737549 175.860962,227.737549 146.994019,227.737549 
	C146.994019,222.361847 146.697128,216.912216 147.164444,211.528915 
	C147.316055,209.782578 149.191833,207.864960 150.751221,206.614685 
	C159.876373,199.298309 163.723679,188.866928 159.734360,179.309830 
	C158.280655,175.827179 155.251099,172.795074 152.386307,170.159897 
	C148.611420,166.687531 146.194366,163.120590 146.748856,157.658600 
	C147.216629,153.050858 146.845169,148.357925 146.845169,142.845154 
	C152.251663,142.845154 157.504715,142.637482 162.732590,142.910904 
	C166.911087,143.129440 169.855530,141.758575 172.678284,138.580399 
	C184.701660,125.043190 201.419220,126.184998 212.043243,141.397400 
z"/>
</svg>