<svg version="1.1" id="Layer_1" xmlns="http://www.w3.org/2000/svg" xmlns:xlink="http://www.w3.org/1999/xlink" x="0px" y="0px"
	 width="100%" viewBox="0 0 256 256" enable-background="new 0 0 256 256" xml:space="preserve">
<path fill="#000000" opacity="1.000000" stroke="none" 
	d="
M123.000000,257.000000 
	C82.000000,257.000000 41.500004,257.000000 1.000005,257.000000 
	C1.000004,171.666672 1.000004,86.333351 1.000002,1.000017 
	C86.333321,1.000011 171.666641,1.000011 257.000000,1.000006 
	C257.000000,86.333313 257.000000,171.666626 257.000000,256.999969 
	C212.500000,257.000000 168.000000,257.000000 123.000000,257.000000 
M149.102951,69.367882 
	C143.332504,60.412624 137.505096,51.493313 131.819702,42.484375 
	C129.554886,38.895592 127.236755,38.460026 123.668503,40.922794 
	C108.239624,51.571636 94.499847,64.120323 81.689255,77.728050 
	C75.705498,84.084145 75.683403,84.294930 82.375221,90.048721 
	C85.889633,93.070511 86.586708,95.846626 84.824608,100.418510 
	C80.220306,112.364632 76.348526,124.593796 72.213943,136.720078 
	C64.375526,159.709320 57.531845,182.989975 51.602943,206.546295 
	C50.641621,210.365753 50.940529,213.340012 54.419552,215.669983 
	C57.641937,217.828049 61.069359,219.548630 64.817505,220.409973 
	C68.942375,221.357925 72.023506,220.136703 74.396515,216.146729 
	C79.669060,207.281387 85.463409,198.728012 90.921402,189.970413 
	C92.590134,187.292847 94.655647,185.526199 97.734985,184.617554 
	C115.926437,179.249725 134.692383,176.566650 153.165054,172.522125 
	C157.074020,171.666245 158.556763,173.883774 160.232941,176.341919 
	C168.676514,188.724457 176.736786,201.359009 183.857758,214.544861 
	C186.484268,219.408325 190.430450,219.394547 194.503967,218.263474 
	C199.745514,216.808090 205.257736,215.204041 207.162964,209.031250 
	C207.377869,208.334930 206.940353,207.405548 206.714905,206.609863 
	C203.906387,196.698410 201.306366,186.720947 198.220215,176.896317 
	C186.396362,139.255646 170.069778,103.647774 149.102951,69.367882 
z"/>
<path fill="#000000" opacity="1.000000" stroke="none" 
	d="
M133.070541,140.867218 
	C134.755096,143.621887 137.365875,145.358673 138.547241,148.855164 
	C132.755066,148.932770 127.690247,148.177948 122.301102,146.941284 
	C123.626152,143.086945 126.094330,140.416718 128.579987,137.920502 
	C130.766632,137.950821 131.614594,139.549103 133.070541,140.867218 
z"/>
</svg>